<?xml version="1.0" encoding="UTF-8"?>
<!DOCTYPE svg PUBLIC "-//W3C//DTD SVG 1.1//EN" "http://www.w3.org/Graphics/SVG/1.1/DTD/svg11.dtd">
<svg xmlns="http://www.w3.org/2000/svg" version="1.1" width="167px" height="150px" style="shape-rendering:geometricPrecision; text-rendering:geometricPrecision; image-rendering:optimizeQuality; fill-rule:evenodd; clip-rule:evenodd" xmlns:xlink="http://www.w3.org/1999/xlink">
<g><path style="opacity:1" fill="#754bd6" d="M 116.5,49.5 C 118.279,51.3435 120.612,52.0102 123.5,51.5C 139.863,55.1578 148.53,65.4912 149.5,82.5C 148.765,98.1628 141.098,108.663 126.5,114C 101.846,115.366 77.1794,115.699 52.5,115C 34.1176,112.259 24.1176,101.593 22.5,83C 22.3724,77.3398 23.7057,72.1731 26.5,67.5C 27.9063,67.0269 28.573,66.0269 28.5,64.5C 31.2227,59.4441 35.2227,55.7774 40.5,53.5C 45.2829,52.4915 49.9496,51.4915 54.5,50.5C 61.8064,31.5119 75.4731,24.0119 95.5,28C 106.079,31.7444 113.079,38.911 116.5,49.5 Z"/></g>
<g><path style="opacity:1" fill="#fbfbfe" d="M 79.5,36.5 C 89.7403,34.8439 98.2403,37.8439 105,45.5C 107.558,49.8567 109.725,54.3567 111.5,59C 133.417,59.2397 142.584,70.073 139,91.5C 136.141,98.6753 130.974,103.175 123.5,105C 98.1667,105.667 72.8333,105.667 47.5,105C 34.0828,99.6711 28.9161,89.8378 32,75.5C 37.4435,63.1895 46.9435,57.6895 60.5,59C 63.1255,48.2197 69.4588,40.7197 79.5,36.5 Z"/></g>
<g><path style="opacity:0.533" fill="#b19eda" d="M 116.5,49.5 C 118.952,50.0654 121.285,50.7321 123.5,51.5C 120.612,52.0102 118.279,51.3435 116.5,49.5 Z"/></g>
<g><path style="opacity:1" fill="#b39ae2" d="M 54.5,50.5 C 49.9496,51.4915 45.2829,52.4915 40.5,53.5C 44.7378,51.0439 49.4045,50.0439 54.5,50.5 Z"/></g>
<g><path style="opacity:1" fill="#6f44d5" d="M 76.5,60.5 C 81.5011,59.6714 83.6678,61.6714 83,66.5C 78.1667,70.6667 73.3333,74.8333 68.5,79C 73.6344,83.1329 78.4677,87.6329 83,92.5C 83.692,95.7707 82.3587,97.7707 79,98.5C 73.8441,94.681 68.6774,90.8477 63.5,87C 60.8974,84.9065 58.8974,82.4065 57.5,79.5C 57.7189,78.062 58.2189,76.7287 59,75.5C 65.1842,70.8373 71.0176,65.8373 76.5,60.5 Z"/></g>
<g><path style="opacity:1" fill="#6f44d6" d="M 90.5,60.5 C 92.6547,60.372 94.6547,60.872 96.5,62C 100.88,66.048 105.546,69.7147 110.5,73C 115.797,77.5586 115.464,81.8919 109.5,86C 103.949,90.3933 98.2821,94.56 92.5,98.5C 89.2366,97.3072 88.0699,94.9739 89,91.5C 93.8333,87.3333 98.6667,83.1667 103.5,79C 99,75.1667 94.5,71.3333 90,67.5C 87.9121,64.9564 88.0787,62.623 90.5,60.5 Z"/></g>
<g><path style="opacity:0.631" fill="#b19dde" d="M 28.5,64.5 C 28.573,66.0269 27.9063,67.0269 26.5,67.5C 26.427,65.9731 27.0937,64.9731 28.5,64.5 Z"/></g>
</svg>
